0
SECTION
2
HEADER
9
$INSUNITS
70
4
9
$ACADVER
1
AC1014
9
$HANDSEED
5
FFFF
0
ENDSEC
0
SECTION
2
TABLES
0
TABLE
2
VPORT
5
8
100
AcDbSymbolTable
0
ENDTAB
0
TABLE
2
LTYPE
5
5
100
AcDbSymbolTable
0
LTYPE
5
14
100
AcDbSymbolTableRecord
100
AcDbLinetypeTableRecord
2
BYBLOCK
70
0
0
LTYPE
5
15
100
AcDbSymbolTableRecord
100
AcDbLinetypeTableRecord
2
BYLAYER
70
0
0
ENDTAB
0
TABLE
2
LAYER
5
2
100
AcDbSymbolTable
70
2
0
LAYER
5
50
100
AcDbSymbolTableRecord
100
AcDbLayerTableRecord
2
0
70
0
6
CONTINUOUS
0
ENDTAB
0
TABLE
2
STYLE
5
3
100
AcDbSymbolTable
70
1
0
STYLE
5
11
100
AcDbSymbolTableRecord
100
AcDbTextStyleTableRecord
2
STANDARD
70
0
0
ENDTAB
0
TABLE
2
VIEW
5
6
100
AcDbSymbolTable
70
0
0
ENDTAB
0
TABLE
2
UCS
5
7
100
AcDbSymbolTable
70
0
0
ENDTAB
0
TABLE
2
APPID
5
9
100
AcDbSymbolTable
70
2
0
APPID
5
12
100
AcDbSymbolTableRecord
100
AcDbRegAppTableRecord
2
ACAD
70
0
0
ENDTAB
0
TABLE
2
DIMSTYLE
5
A
100
AcDbSymbolTable
70
1
0
ENDTAB
0
TABLE
2
BLOCK_RECORD
5
1
100
AcDbSymbolTable
70
1
0
BLOCK_RECORD
5
1F
100
AcDbSymbolTableRecord
100
AcDbBlockTableRecord
2
*MODEL_SPACE
0
BLOCK_RECORD
5
1B
100
AcDbSymbolTableRecord
100
AcDbBlockTableRecord
2
*PAPER_SPACE
0
ENDTAB
0
ENDSEC
0
SECTION
2
BLOCKS
0
BLOCK
5
20
100
AcDbEntity
100
AcDbBlockBegin
2
*MODEL_SPACE
0
ENDBLK
5
21
100
AcDbEntity
100
AcDbBlockEnd
0
BLOCK
5
1C
100
AcDbEntity
100
AcDbBlockBegin
2
*PAPER_SPACE
0
ENDBLK
5
1D
100
AcDbEntity
100
AcDbBlockEnd
0
ENDSEC
0
SECTION
2
ENTITIES
0
LWPOLYLINE
5
100
100
AcDbEntity
8
0
100
AcDbPolyline
90
14
70
1
43
0.0
10
5.5511151231257827e-16
20
-3.000000000000008
42
-0.41421356237309603
10
3.0000000000000071
20
2.2204460492503131e-15
10
157
20
-7.7715611723760958e-15
42
-0.41421356237309359
10
160
20
-3.0000000000000004
10
160
20
-19.999999999999993
42
-0.4142135623730942
10
157
20
-22.999999999999986
10
147.5
20
-22.999999999999979
10
147.49999999999997
20
-42.999999999999979
10
157
20
-42.999999999999986
42
-0.41421356237309331
10
160
20
-45.999999999999979
10
160
20
-128
42
-0.4142135623730881
10
157
20
-131
10
3.000000000000008
20
-131
42
-0.41421356237309281
10
0
20
-128
0
CIRCLE
5
101
100
AcDbEntity
8
0
100
AcDbCircle
10
132
20
-104.88535954729903
30
0
40
1.05
0
CIRCLE
5
102
100
AcDbEntity
8
0
100
AcDbCircle
10
152
20
-124.88535954729903
30
0
40
1.05
0
CIRCLE
5
103
100
AcDbEntity
8
0
100
AcDbCircle
10
153
20
-117.38535954729903
30
0
40
1.05
0
CIRCLE
5
104
100
AcDbEntity
8
0
100
AcDbCircle
10
132
20
-117.38535954729903
30
0
40
1.05
0
CIRCLE
5
105
100
AcDbEntity
8
0
100
AcDbCircle
10
132
20
-124.88535954729903
30
0
40
1.05
0
CIRCLE
5
106
100
AcDbEntity
8
0
100
AcDbCircle
10
42.541744703724035
20
-57.500000000000007
30
0
40
1.45
0
CIRCLE
5
107
100
AcDbEntity
8
0
100
AcDbCircle
10
100.54174470372404
20
-57.500000000000007
30
0
40
1.45
0
CIRCLE
5
108
100
AcDbEntity
8
0
100
AcDbCircle
10
31.500000000000004
20
-64.500000000000014
30
0
40
1.45
0
CIRCLE
5
109
100
AcDbEntity
8
0
100
AcDbCircle
10
31.500000000000004
20
-122.50000000000001
30
0
40
1.45
0
CIRCLE
5
110
100
AcDbEntity
8
0
100
AcDbCircle
10
8.5
20
-122.50000000000001
30
0
40
1.45
0
CIRCLE
5
111
100
AcDbEntity
8
0
100
AcDbCircle
10
8.5
20
-64.500000000000014
30
0
40
1.45
0
CIRCLE
5
112
100
AcDbEntity
8
0
100
AcDbCircle
10
100.54174470372404
20
-34.500000000000007
30
0
40
1.45
0
CIRCLE
5
113
100
AcDbEntity
8
0
100
AcDbCircle
10
42.541744703724035
20
-34.500000000000007
30
0
40
1.45
0
LWPOLYLINE
5
114
100
AcDbEntity
8
0
100
AcDbPolyline
90
20
70
1
43
0.0
10
131.21983627482217
20
-122.51020806541064
42
-0.86897124094704037
10
133.40610842196423
20
-126.9524490726175
10
150.59389157803582
20
-126.9524490726175
42
-1.0915810657971385
10
153.74458395972636
20
-123.09470971903401
10
153.74458395972636
20
-119.77190406331339
42
-1.1639166883200094
10
153
20
-114.88535954729903
10
154.75000000000017
20
-114.88535954729919
10
154.75000000000011
20
-107.38535954729903
10
153
20
-107.38535954729906
42
-0.99999999999999989
10
153
20
-102.38535954729903
10
154.75000000000011
20
-102.38535954729903
10
154.75000000000011
20
-87.301902640707482
10
130.25000000000006
20
-87.301902640707482
10
130.25000000000009
20
-102.38535954729903
10
132
20
-102.38535954729905
42
-0.99999999999999989
10
132
20
-107.385359547299
10
130.25000000000003
20
-107.38535954729903
10
130.24999999999994
20
-114.88535954729899
10
132.00000000000003
20
-114.88535954729903
42
-1.1727522449694359
10
131.2198362748222
20
-119.76051102918744
0
CIRCLE
5
115
100
AcDbEntity
8
0
100
AcDbCircle
10
93.5
20
-8.5000000000000053
30
0
40
1.3749999999999929
0
CIRCLE
5
116
100
AcDbEntity
8
0
100
AcDbCircle
10
93.5
20
-57.500000000000007
30
0
40
1.3749999999999929
0
CIRCLE
5
117
100
AcDbEntity
8
0
100
AcDbCircle
10
151.5
20
-8.5000000000000053
30
0
40
1.3749999999999929
0
CIRCLE
5
118
100
AcDbEntity
8
0
100
AcDbCircle
10
151.5
20
-57.500000000000007
30
0
40
1.3749999999999929
0
CIRCLE
5
119
100
AcDbEntity
8
0
100
AcDbCircle
10
153
20
-104.88535954729905
30
0
40
1.05
0
ENDSEC
0
SECTION
2
OBJECTS
0
DICTIONARY
5
C
100
AcDbDictionary
3
ACAD_GROUP
350
D
3
ACAD_MLINESTYLE
350
17
0
DICTIONARY
5
D
100
AcDbDictionary
0
DICTIONARY
5
1A
330
C
100
AcDbDictionary
0
DICTIONARY
5
17
100
AcDbDictionary
0
ENDSEC
0
EOF
