<?xml version="1.0" encoding="UTF-8" standalone="no"?>
<svg
   xmlns:dc="http://purl.org/dc/elements/1.1/"
   xmlns:cc="http://creativecommons.org/ns#"
   xmlns:rdf="http://www.w3.org/1999/02/22-rdf-syntax-ns#"
   xmlns:svg="http://www.w3.org/2000/svg"
   xmlns="http://www.w3.org/2000/svg"
   xmlns:sodipodi="http://sodipodi.sourceforge.net/DTD/sodipodi-0.dtd"
   xmlns:inkscape="http://www.inkscape.org/namespaces/inkscape"
   width="793.700787402"
   height="1122.51968504"
   version="1.1"
   id="svg87"
   sodipodi:docname="baseplate.svg"
   inkscape:version="0.92.3 (2405546, 2018-03-11)">
  <metadata
     id="metadata91">
    <rdf:RDF>
      <cc:Work
         rdf:about="">
        <dc:format>image/svg+xml</dc:format>
        <dc:type
           rdf:resource="http://purl.org/dc/dcmitype/StillImage" />
        <dc:title></dc:title>
      </cc:Work>
    </rdf:RDF>
  </metadata>
  <sodipodi:namedview
     pagecolor="#ffffff"
     bordercolor="#666666"
     borderopacity="1"
     objecttolerance="10"
     gridtolerance="10"
     guidetolerance="10"
     inkscape:pageopacity="0"
     inkscape:pageshadow="2"
     inkscape:window-width="960"
     inkscape:window-height="1139"
     id="namedview89"
     showgrid="false"
     inkscape:zoom="0.82225732"
     inkscape:cx="396.8504"
     inkscape:cy="707.19954"
     inkscape:window-x="960"
     inkscape:window-y="0"
     inkscape:window-maximized="1"
     inkscape:current-layer="g85" />
  <desc
     id="desc29">/usr/local/google/home/mtyka/coral/project-teachable/baseplate.dxf - scale = 1.000000, origin = (0.000000, 0.000000), method = manual</desc>
  <defs
     id="defs43">
    <marker
       id="DistanceX"
       orient="auto"
       refX="0.0"
       refY="0.0"
       style="overflow:visible">
      <path
         d="M 3,-3 L -3,3 M 0,-5 L  0,5"
         style="stroke:#000000; stroke-width:0.5"
         id="path31" />
    </marker>
    <pattern
       height="8"
       id="Hatch"
       patternUnits="userSpaceOnUse"
       width="8"
       x="0"
       y="0">
      <path
         d="M8 4 l-4,4"
         linecap="square"
         stroke="#000000"
         stroke-width="0.25"
         id="path34" />
      <path
         d="M6 2 l-4,4"
         linecap="square"
         stroke="#000000"
         stroke-width="0.25"
         id="path36" />
      <path
         d="M4 0 l-4,4"
         linecap="square"
         stroke="#000000"
         stroke-width="0.25"
         id="path38" />
    </pattern>
    <symbol
       id="*MODEL_SPACE" />
    <symbol
       id="*PAPER_SPACE" />
  </defs>
  <g
     inkscape:groupmode="layer"
     inkscape:label="0"
     id="g85">
    <path
       d="M 92.428487,104.98326 A 11.338583,11.338583 0 0 1 103.76707,93.644685 h 582.04725 a 11.338583,11.338583 0 0 1 11.33858,11.338575 v 64.25197 a 11.338583,11.338583 0 0 1 -11.33858,11.33858 H 649.9088 v 75.59055 h 35.90552 a 11.338583,11.338583 0 0 1 11.33858,11.33859 v 309.92126 a 11.338583,11.338583 0 0 1 -11.33858,11.33858 H 103.76707 A 11.338583,11.338583 0 0 1 92.428487,577.42421 Z"
       style="fill:none;stroke:#000000"
       id="path45"
       inkscape:connector-curvature="0" />
    <path
       d="m 595.29463,490.06179 a 3.968505,3.968505 0 1 0 -7.93701,0 3.968505,3.968505 0 1 0 7.93701,0 z"
       style="fill:none;stroke:#000000"
       id="path47"
       inkscape:connector-curvature="0" />
    <path
       d="m 670.88518,565.65234 a 3.968505,3.968505 0 1 0 -7.93701,0 3.968505,3.968505 0 1 0 7.93701,0 z"
       style="fill:none;stroke:#000000"
       id="path49"
       inkscape:connector-curvature="0" />
    <path
       d="m 674.66471,537.30588 a 3.968505,3.968505 0 1 0 -7.93701,0 3.968505,3.968505 0 1 0 7.93701,0 z"
       style="fill:none;stroke:#000000"
       id="path51"
       inkscape:connector-curvature="0" />
    <path
       d="m 595.29463,537.30588 a 3.968505,3.968505 0 1 0 -7.93701,0 3.968505,3.968505 0 1 0 7.93701,0 z"
       style="fill:none;stroke:#000000"
       id="path53"
       inkscape:connector-curvature="0" />
    <path
       d="m 595.29463,565.65234 a 3.968505,3.968505 0 1 0 -7.93701,0 3.968505,3.968505 0 1 0 7.93701,0 z"
       style="fill:none;stroke:#000000"
       id="path55"
       inkscape:connector-curvature="0" />
    <path
       d="m 258.6965,310.96751 a 5.480315,5.480315 0 1 0 -10.96063,0 5.480315,5.480315 0 1 0 10.96063,0 z"
       style="fill:none;stroke:#000000"
       id="path57"
       inkscape:connector-curvature="0" />
    <path
       d="m 477.9091,310.96751 a 5.480315,5.480315 0 1 0 -10.96063,0 5.480315,5.480315 0 1 0 10.96063,0 z"
       style="fill:none;stroke:#000000"
       id="path59"
       inkscape:connector-curvature="0" />
    <path
       d="m 216.96392,337.42421 a 5.480315,5.480315 0 1 0 -10.96063,0 5.480315,5.480315 0 1 0 10.96063,0 z"
       style="fill:none;stroke:#000000"
       id="path61"
       inkscape:connector-curvature="0" />
    <path
       d="m 216.96392,556.6368 a 5.480315,5.480315 0 1 0 -10.96063,0 5.480315,5.480315 0 1 0 10.96063,0 z"
       style="fill:none;stroke:#000000"
       id="path63"
       inkscape:connector-curvature="0" />
    <path
       d="m 130.03479,556.6368 a 5.480315,5.480315 0 1 0 -10.96063,0 5.480315,5.480315 0 1 0 10.96063,0 z"
       style="fill:none;stroke:#000000"
       id="path65"
       inkscape:connector-curvature="0" />
    <path
       d="m 130.03479,337.42421 a 5.480315,5.480315 0 1 0 -10.96063,0 5.480315,5.480315 0 1 0 10.96063,0 z"
       style="fill:none;stroke:#000000"
       id="path67"
       inkscape:connector-curvature="0" />
    <path
       d="m 477.9091,224.03838 a 5.480315,5.480315 0 1 0 -10.96063,0 5.480315,5.480315 0 1 0 10.96063,0 z"
       style="fill:none;stroke:#000000"
       id="path69"
       inkscape:connector-curvature="0" />
    <path
       d="m 258.6965,224.03838 a 5.480315,5.480315 0 1 0 -10.96063,0 5.480315,5.480315 0 1 0 10.96063,0 z"
       style="fill:none;stroke:#000000"
       id="path71"
       inkscape:connector-curvature="0" />
    <path
       d="m 588.37748,556.67539 a 9.448819,9.448819 0 0 1 8.26307,16.78957 h 64.9617 a 9.448819,9.448819 0 1 1 11.90813,-14.58043 v -12.55864 a 9.448819,9.448819 0 1 1 -2.81417,-18.46883 h 6.61417 V 499.5106 h -6.61417 a 9.448819,9.448819 0 0 1 0,-18.89763 h 6.61417 v -57.00834 h -92.59843 v 57.00834 h 6.61418 a 9.448819,9.448819 0 0 1 0,18.89763 h -6.61418 v 28.34646 h 6.61418 a 9.448819,9.448819 0 1 1 -2.94865,18.42577 z"
       style="fill:none;stroke:#000000"
       id="path73"
       inkscape:connector-curvature="0" />
    <path
       d="m 451.01117,125.77066 a 5.196855,5.196855 0 1 0 -10.39371,0 5.196855,5.196855 0 1 0 10.39371,0 z"
       style="fill:none;stroke:#000000"
       id="path75"
       inkscape:connector-curvature="0" />
    <path
       d="m 451.01117,310.96751 a 5.196855,5.196855 0 1 0 -10.39371,0 5.196855,5.196855 0 1 0 10.39371,0 z"
       style="fill:none;stroke:#000000"
       id="path77"
       inkscape:connector-curvature="0" />
    <path
       d="m 670.22376,125.77066 a 5.1968505,5.1968505 0 1 0 -10.3937,0 5.1968505,5.1968505 0 1 0 10.3937,0 z"
       style="fill:none;stroke:#000000"
       id="path79"
       inkscape:connector-curvature="0" />
    <path
       d="m 670.22376,310.96751 a 5.1968505,5.1968505 0 1 0 -10.3937,0 5.1968505,5.1968505 0 1 0 10.3937,0 z"
       style="fill:none;stroke:#000000"
       id="path81"
       inkscape:connector-curvature="0" />
    <path
       d="m 674.66471,490.06179 a 3.968505,3.968505 0 1 0 -7.93701,0 3.968505,3.968505 0 1 0 7.93701,0 z"
       style="fill:none;stroke:#000000"
       id="path83"
       inkscape:connector-curvature="0" />
  </g>
</svg>
